<svg xmlns="http://www.w3.org/2000/svg" width="319.5" height="120.25" viewBox="0 0 319.5 120.25">
  <defs>
    <style>
      .cls-1 {
        fill: #fff;
        fill-rule: evenodd;
      }
    </style>
  </defs>
  <path id="youtube_ttl_wt.svg" class="cls-1" d="M416.444,3874.13a10.772,10.772,0,0,0-7.6-7.62c-6.7-1.8-33.57-1.8-33.57-1.8s-26.868,0-33.569,1.8a10.772,10.772,0,0,0-7.6,7.62c-1.8,6.72-1.8,20.75-1.8,20.75s0,14.03,1.8,20.76a10.772,10.772,0,0,0,7.6,7.62c6.7,1.8,33.569,1.8,33.569,1.8s26.869,0,33.57-1.8a10.772,10.772,0,0,0,7.6-7.62c1.8-6.73,1.8-20.76,1.8-20.76S418.24,3880.85,416.444,3874.13Zm-49.758,33.69v-25.87l22.322,12.93ZM215.35,3954.2h6.179l5.641,10.8,5.615-10.8h6.1l-8.849,17.02v12.99h-5.8v-12.99Zm34.773,7.25a11.9,11.9,0,0,1,5.95,1.57,11.49,11.49,0,0,1,5.91,10.07,11.587,11.587,0,0,1-1.572,5.88,11.337,11.337,0,0,1-4.286,4.27,11.874,11.874,0,0,1-5.982,1.54A11.665,11.665,0,0,1,250.123,3961.45Zm0.092,5.24a5.807,5.807,0,0,0-4.355,1.8,6.4,6.4,0,0,0-1.74,4.62,6.484,6.484,0,0,0,1.72,4.69,6.18,6.18,0,0,0,8.74-.02,7.114,7.114,0,0,0,.031-9.31A5.833,5.833,0,0,0,250.215,3966.69Zm15.49-4.67h5.674v10.69a14.652,14.652,0,0,0,.432,4.33,3.791,3.791,0,0,0,1.391,1.89,3.992,3.992,0,0,0,2.36.67,4.156,4.156,0,0,0,2.379-.66,3.874,3.874,0,0,0,1.453-1.95,14.842,14.842,0,0,0,.35-4.1v-10.87h5.612v9.4q0,5.82-.925,7.96a8.67,8.67,0,0,1-3.33,4,10.269,10.269,0,0,1-5.591,1.4,9.958,9.958,0,0,1-5.951-1.63,8.615,8.615,0,0,1-3.2-4.55,27.328,27.328,0,0,1-.658-7.34v-9.24Zm25.962-8.18h5.611v8.18h3.33v4.79h-3.33v17.4h-5.611v-17.4h-2.878v-4.79h2.878v-8.18Zm12.763,8.18H310.1v10.69a14.652,14.652,0,0,0,.432,4.33,3.791,3.791,0,0,0,1.391,1.89,3.992,3.992,0,0,0,2.36.67,4.161,4.161,0,0,0,2.38-.66,3.878,3.878,0,0,0,1.452-1.95,14.828,14.828,0,0,0,.351-4.1v-10.87h5.611v9.4q0,5.82-.925,7.96a8.67,8.67,0,0,1-3.33,4,10.269,10.269,0,0,1-5.591,1.4,9.958,9.958,0,0,1-5.951-1.63,8.615,8.615,0,0,1-3.2-4.55,27.328,27.328,0,0,1-.658-7.34v-9.24Zm30.013-8.57v11.01a10.587,10.587,0,0,1,3.289-2.26,9.576,9.576,0,0,1,3.782-.75,9.791,9.791,0,0,1,7.441,3.28,11.866,11.866,0,0,1,3.063,8.42,11.6,11.6,0,0,1-3.166,8.3,10.013,10.013,0,0,1-7.5,3.33,9.485,9.485,0,0,1-3.6-.68,10.958,10.958,0,0,1-3.309-2.24v2.35h-5.571v-30.76h5.571Zm5.9,13.14a5.865,5.865,0,0,0-4.4,1.79,6.443,6.443,0,0,0-1.747,4.69,6.653,6.653,0,0,0,1.747,4.79,5.853,5.853,0,0,0,4.4,1.82,5.746,5.746,0,0,0,4.327-1.85,6.624,6.624,0,0,0,1.758-4.74,6.546,6.546,0,0,0-1.727-4.68A5.764,5.764,0,0,0,340.342,3966.59Zm38.727,8.14H361.042a5.942,5.942,0,0,0,2.086,3.76,6.586,6.586,0,0,0,4.327,1.4,7.5,7.5,0,0,0,5.406-2.19l4.728,2.21a11.16,11.16,0,0,1-4.235,3.68,13.406,13.406,0,0,1-5.858,1.19,11.649,11.649,0,0,1-8.572-3.29,11.177,11.177,0,0,1-3.309-8.25,11.554,11.554,0,0,1,3.3-8.44,11.107,11.107,0,0,1,8.274-3.35,11.524,11.524,0,0,1,8.592,3.35,12.075,12.075,0,0,1,3.309,8.86Zm-5.612-4.39a5.6,5.6,0,0,0-2.193-3.02,6.355,6.355,0,0,0-3.8-1.16,6.751,6.751,0,0,0-4.118,1.3,7.376,7.376,0,0,0-2.059,2.88h12.169Zm50.937-10.57-2.385,1.82a13.053,13.053,0,0,0-4.738-3.87,14.052,14.052,0,0,0-6.074-1.31,13.493,13.493,0,0,0-6.7,1.72,12.405,12.405,0,0,0-4.779,4.63,12.744,12.744,0,0,0-1.7,6.54,12.23,12.23,0,0,0,3.792,9.16,13.191,13.191,0,0,0,9.569,3.67,13.5,13.5,0,0,0,10.627-4.94l2.385,1.8a15.25,15.25,0,0,1-5.643,4.41,17.823,17.823,0,0,1-7.554,1.57q-7.935,0-12.518-5.25a15.736,15.736,0,0,1-3.844-10.69,14.8,14.8,0,0,1,4.656-11.08,16.114,16.114,0,0,1,11.665-4.5,17.206,17.206,0,0,1,7.647,1.66A14.828,14.828,0,0,1,424.394,3959.77Zm3.907-6.32h2.877v12.54a12.165,12.165,0,0,1,3.844-3.41,9.352,9.352,0,0,1,4.543-1.13,7.994,7.994,0,0,1,4.45,1.26,7.559,7.559,0,0,1,2.868,3.4,17.836,17.836,0,0,1,.925,6.68v11.42H444.93v-10.59a27,27,0,0,0-.308-5.12,5.265,5.265,0,0,0-5.632-4.42,7.139,7.139,0,0,0-4.677,1.71,8.026,8.026,0,0,0-2.723,4.24,29.042,29.042,0,0,0-.412,6.04v8.14H428.3v-30.76Zm46.272,8.57v22.19h-2.837v-3.81a12.309,12.309,0,0,1-4.06,3.28,11.1,11.1,0,0,1-4.923,1.1,10.957,10.957,0,0,1-8.109-3.42,11.385,11.385,0,0,1-3.361-8.31,11.211,11.211,0,0,1,3.392-8.2,11.1,11.1,0,0,1,8.16-3.4,10.562,10.562,0,0,1,4.985,1.16,11.274,11.274,0,0,1,3.916,3.49v-4.08h2.837Zm-11.5,2.18a8.737,8.737,0,0,0-4.435,1.17,8.628,8.628,0,0,0-3.234,3.29,9.113,9.113,0,0,0,3.265,12.3,8.6,8.6,0,0,0,4.383,1.19,9.015,9.015,0,0,0,4.476-1.18,8.349,8.349,0,0,0,3.255-3.2,9.093,9.093,0,0,0,1.139-4.54,8.787,8.787,0,0,0-2.556-6.44A8.483,8.483,0,0,0,463.072,3964.2Zm17.134-2.18h2.877v3.97a11.951,11.951,0,0,1,3.824-3.41,9.39,9.39,0,0,1,4.563-1.13,7.994,7.994,0,0,1,4.45,1.26,7.533,7.533,0,0,1,2.868,3.41,17.868,17.868,0,0,1,.925,6.67v11.42h-2.878v-10.59a26,26,0,0,0-.32-5.12,5.591,5.591,0,0,0-1.919-3.31,5.832,5.832,0,0,0-3.7-1.11,7.14,7.14,0,0,0-4.678,1.71,8.033,8.033,0,0,0-2.724,4.24,29.335,29.335,0,0,0-.411,6.04v8.14h-2.877v-22.19Zm43.66,14.83,2.426,1.26a13.075,13.075,0,0,1-2.758,3.75,10.892,10.892,0,0,1-3.518,2.18,12.5,12.5,0,0,1-4.423.74,10.707,10.707,0,0,1-8.559-3.56,11.944,11.944,0,0,1-3.086-8.05,11.792,11.792,0,0,1,2.613-7.52,10.714,10.714,0,0,1,8.867-4.2,11.06,11.06,0,0,1,9.135,4.3,11.974,11.974,0,0,1,2.469,7.59H506.908a9.014,9.014,0,0,0,2.49,6.34,7.966,7.966,0,0,0,5.948,2.47,9.69,9.69,0,0,0,3.323-.59,8.694,8.694,0,0,0,2.748-1.56A13.31,13.31,0,0,0,523.866,3976.85Zm0-5.98a9.445,9.445,0,0,0-1.677-3.65,7.856,7.856,0,0,0-2.912-2.2,8.948,8.948,0,0,0-3.808-.84,8.24,8.24,0,0,0-5.66,2.1,9.475,9.475,0,0,0-2.613,4.59h16.67Zm8.1-17.42h2.878v30.76h-2.878v-30.76Z" transform="translate(-215.344 -3864.72)"/>
</svg>
